<svg width="25" height="25" viewBox="0 0 25 25" fill="none" xmlns="http://www.w3.org/2000/svg">
<path d="M16.25 8.74988H13.75V6.24991C13.75 5.9184 13.6183 5.60046 13.3839 5.36604C13.1495 5.13162 12.8315 4.99993 12.5 4.99993C12.1685 4.99993 11.8505 5.13162 11.6161 5.36604C11.3817 5.60046 11.25 5.9184 11.25 6.24991V8.74988H8.75C8.41848 8.74988 8.10054 8.88157 7.86612 9.11599C7.6317 9.35041 7.5 9.66834 7.5 9.99986C7.5 10.3314 7.6317 10.6493 7.86612 10.8837C8.10054 11.1181 8.41848 11.2498 8.75 11.2498H11.25V13.7498C11.25 14.0813 11.3817 14.3993 11.6161 14.6337C11.8505 14.8681 12.1685 14.9998 12.5 14.9998C12.8315 14.9998 13.1495 14.8681 13.3839 14.6337C13.6183 14.3993 13.75 14.0813 13.75 13.7498V11.2498H16.25C16.5815 11.2498 16.8995 11.1181 17.1339 10.8837C17.3683 10.6493 17.5 10.3314 17.5 9.99986C17.5 9.66834 17.3683 9.35041 17.1339 9.11599C16.8995 8.88157 16.5815 8.74988 16.25 8.74988ZM21.25 0H3.75C2.75544 0 1.80161 0.395083 1.09835 1.09833C0.395088 1.80159 0 2.7554 0 3.74995V16.2498C0 17.2443 0.395088 18.1981 1.09835 18.9014C1.80161 19.6046 2.75544 19.9997 3.75 19.9997H18.2375L22.8625 24.6372C22.9793 24.753 23.1178 24.8447 23.2701 24.9069C23.4224 24.9691 23.5855 25.0006 23.75 24.9997C23.914 25.0039 24.0766 24.9696 24.225 24.8997C24.4533 24.8059 24.6487 24.6466 24.7866 24.442C24.9245 24.2373 24.9988 23.9964 25 23.7497V3.74995C25 2.7554 24.6049 1.80159 23.9017 1.09833C23.1984 0.395083 22.2446 0 21.25 0ZM22.5 20.7372L19.6375 17.8623C19.5207 17.7464 19.3822 17.6547 19.2299 17.5925C19.0776 17.5303 18.9145 17.4988 18.75 17.4998H3.75C3.41848 17.4998 3.10054 17.3681 2.86612 17.1336C2.6317 16.8992 2.5 16.5813 2.5 16.2498V3.74995C2.5 3.41843 2.6317 3.10049 2.86612 2.86608C3.10054 2.63166 3.41848 2.49997 3.75 2.49997H21.25C21.5815 2.49997 21.8995 2.63166 22.1339 2.86608C22.3683 3.10049 22.5 3.41843 22.5 3.74995V20.7372Z" fill="#E9E9E9"/>
</svg>
