<svg width="30" height="30" viewBox="0 0 30 30" fill="none" xmlns="http://www.w3.org/2000/svg">
<path d="M25.8762 18.4201L19.5963 24.7226C17.8378 26.4876 15.391 27.5 12.8831 27.5C10.4139 27.5 8.11452 26.5551 6.40717 24.8413C2.80638 21.2263 2.85888 15.2925 6.52586 11.6138L13.6799 4.4339C14.9227 3.1864 16.5739 2.5 18.3324 2.5C20.091 2.5 21.7421 3.1864 22.9848 4.4339C25.5477 7.0064 25.5477 11.19 22.9848 13.7625L15.797 20.9763C14.3194 22.4613 11.7378 22.4613 10.2603 20.9763C8.73653 19.4475 8.73653 16.9587 10.2603 15.43L16.5738 9.09363C17.0597 8.60238 17.8503 8.60244 18.3399 9.09119C18.8282 9.57869 18.8295 10.37 18.3424 10.8588L12.0288 17.1951C11.4755 17.7501 11.4755 18.6549 12.0288 19.2099C12.5646 19.7474 13.4926 19.7474 14.0272 19.2099L21.215 11.9962C22.8075 10.3974 22.8075 7.79751 21.215 6.19751C19.675 4.65251 16.9885 4.65251 15.4485 6.19751L8.29435 13.3774C5.64278 16.0374 5.58911 20.4787 8.17574 23.075C9.41097 24.315 11.0833 24.9988 12.8831 24.9988C14.7316 24.9988 16.5338 24.2537 17.8278 22.9562L24.1076 16.6537C24.5947 16.1625 25.3841 16.1638 25.8737 16.6513C26.362 17.1401 26.3633 17.9326 25.8762 18.4201Z" fill="white" fill-opacity="0.5"/>
</svg>
