<svg width="28" height="28" viewBox="0 0 28 28" fill="none" xmlns="http://www.w3.org/2000/svg">
<path d="M10.1391 23.625H5.25001C5.01794 23.625 4.79538 23.5328 4.63129 23.3687C4.46719 23.2046 4.37501 22.9821 4.37501 22.75V17.8609C4.37461 17.7473 4.39662 17.6347 4.43979 17.5296C4.48295 17.4245 4.54643 17.329 4.62657 17.2484L17.7516 4.12343C17.833 4.04076 17.93 3.9751 18.0371 3.93029C18.1441 3.88548 18.259 3.8624 18.375 3.8624C18.491 3.8624 18.6059 3.88548 18.7129 3.93029C18.82 3.9751 18.917 4.04076 18.9984 4.12343L23.8766 9.00156C23.9592 9.08298 24.0249 9.18002 24.0697 9.28706C24.1145 9.39409 24.1376 9.50896 24.1376 9.625C24.1376 9.74103 24.1145 9.8559 24.0697 9.96294C24.0249 10.07 23.9592 10.167 23.8766 10.2484L10.7516 23.3734C10.671 23.4536 10.5755 23.517 10.4704 23.5602C10.3653 23.6034 10.2527 23.6254 10.1391 23.625V23.625Z" stroke="#BABABA" stroke-width="2" stroke-linecap="round" stroke-linejoin="round"/>
<path d="M14.875 7L21 13.125" stroke="#BABABA" stroke-width="2" stroke-linecap="round" stroke-linejoin="round"/>
</svg>
