<svg width="28" height="28" viewBox="0 0 28 28" fill="none" xmlns="http://www.w3.org/2000/svg">
<path d="M17.304 17.122C16.3681 17.8765 15.2022 18.288 14 18.288C12.7978 18.288 11.6319 17.8765 10.696 17.122C10.4101 16.8844 10.0415 16.77 9.67131 16.8042C9.30111 16.8383 8.95964 17.0181 8.72201 17.304C8.48437 17.5899 8.37004 17.9585 8.40418 18.3287C8.43831 18.6989 8.6181 19.0404 8.904 19.278C10.3339 20.4716 12.1374 21.1255 14 21.1255C15.8626 21.1255 17.6661 20.4716 19.096 19.278C19.3819 19.0404 19.5617 18.6989 19.5958 18.3287C19.63 17.9585 19.5156 17.5899 19.278 17.304C19.1603 17.1624 19.0159 17.0454 18.8531 16.9597C18.6902 16.8739 18.512 16.8211 18.3287 16.8042C17.9585 16.77 17.5899 16.8844 17.304 17.122V17.122ZM10.094 11.956C10.3563 12.2167 10.7111 12.3631 11.081 12.3631C11.4509 12.3631 11.8057 12.2167 12.068 11.956C12.3288 11.6937 12.4751 11.3389 12.4751 10.969C12.4751 10.5991 12.3288 10.2443 12.068 9.982C11.2668 9.22179 10.2045 8.79799 9.1 8.79799C7.99555 8.79799 6.9332 9.22179 6.13201 9.982C5.98545 10.1075 5.86642 10.2619 5.78239 10.4356C5.69836 10.6093 5.65113 10.7985 5.64369 10.9913C5.63624 11.1841 5.66873 11.3764 5.73911 11.556C5.8095 11.7357 5.91626 11.8989 6.05269 12.0353C6.18913 12.1717 6.3523 12.2785 6.53195 12.3489C6.71161 12.4193 6.90387 12.4518 7.09668 12.4443C7.28949 12.4369 7.47867 12.3896 7.65236 12.3056C7.82605 12.2216 7.9805 12.1026 8.106 11.956C8.23615 11.8248 8.39099 11.7206 8.5616 11.6495C8.7322 11.5785 8.91519 11.5419 9.1 11.5419C9.28482 11.5419 9.46781 11.5785 9.63841 11.6495C9.80901 11.7206 9.96386 11.8248 10.094 11.956V11.956ZM21.868 9.982C21.0668 9.22179 20.0045 8.79799 18.9 8.79799C17.7955 8.79799 16.7332 9.22179 15.932 9.982C15.7026 10.2498 15.5828 10.5943 15.5964 10.9467C15.61 11.299 15.7561 11.6333 16.0054 11.8826C16.2547 12.1319 16.589 12.278 16.9413 12.2916C17.2937 12.3052 17.6382 12.1854 17.906 11.956C18.0362 11.8248 18.191 11.7206 18.3616 11.6495C18.5322 11.5785 18.7152 11.5419 18.9 11.5419C19.0848 11.5419 19.2678 11.5785 19.4384 11.6495C19.609 11.7206 19.7639 11.8248 19.894 11.956C20.1563 12.2167 20.5111 12.3631 20.881 12.3631C21.2509 12.3631 21.6057 12.2167 21.868 11.956C22.1288 11.6937 22.2751 11.3389 22.2751 10.969C22.2751 10.5991 22.1288 10.2443 21.868 9.982V9.982ZM14 0C11.2311 0 8.52431 0.821085 6.22202 2.35942C3.91973 3.89776 2.12532 6.08426 1.06569 8.64243C0.00606598 11.2006 -0.271181 14.0155 0.269012 16.7313C0.809205 19.447 2.14258 21.9416 4.10051 23.8995C6.05845 25.8574 8.55301 27.1908 11.2687 27.731C13.9845 28.2712 16.7994 27.9939 19.3576 26.9343C21.9157 25.8747 24.1022 24.0803 25.6406 21.778C27.1789 19.4757 28 16.7689 28 14C28 12.1615 27.6379 10.341 26.9343 8.64243C26.2307 6.94387 25.1995 5.40052 23.8995 4.1005C22.5995 2.80048 21.0561 1.76925 19.3576 1.06569C17.659 0.362121 15.8385 0 14 0V0ZM14 25.2C11.7849 25.2 9.61945 24.5431 7.77762 23.3125C5.93579 22.0818 4.50026 20.3326 3.65256 18.286C2.80485 16.2395 2.58306 13.9876 3.01521 11.815C3.44737 9.6424 4.51406 7.64675 6.08041 6.0804C7.64676 4.51405 9.64241 3.44736 11.815 3.0152C13.9876 2.58305 16.2395 2.80485 18.2861 3.65255C20.3326 4.50025 22.0818 5.93578 23.3125 7.77761C24.5431 9.61944 25.2 11.7848 25.2 14C25.2 16.9704 24.02 19.8192 21.9196 21.9196C19.8192 24.02 16.9704 25.2 14 25.2V25.2Z" fill="white" fill-opacity="0.5"/>
</svg>
