<svg width="20" height="20" viewBox="0 0 20 20" fill="none" xmlns="http://www.w3.org/2000/svg">
<path d="M18.089 16.9108L14.3065 13.1283C15.259 11.9217 15.8332 10.4025 15.8332 8.74999C15.8332 4.84416 12.6557 1.66666 8.74984 1.66666C4.844 1.66666 1.6665 4.84416 1.6665 8.74999C1.6665 12.6558 4.844 15.8333 8.74984 15.8333C10.4032 15.8333 11.9215 15.26 13.1282 14.3066L16.9107 18.0892C17.0732 18.2517 17.2865 18.3333 17.4998 18.3333C17.7132 18.3333 17.9265 18.2517 18.089 18.0892C18.4148 17.7633 18.4148 17.2366 18.089 16.9108ZM3.33317 8.74999C3.33317 5.76332 5.76317 3.33332 8.74984 3.33332C11.7365 3.33332 14.1665 5.76332 14.1665 8.74999C14.1665 11.7367 11.7365 14.1667 8.74984 14.1667C5.76317 14.1667 3.33317 11.7367 3.33317 8.74999Z" fill="white" fill-opacity="0.7"/>
</svg>
