<svg width="25" height="25" viewBox="0 0 25 25" fill="none" xmlns="http://www.w3.org/2000/svg">
<path d="M22.9168 12.5001C22.9168 13.0762 22.4511 13.5418 21.8751 13.5418H5.63967L11.1532 19.0553C11.5605 19.4626 11.5605 20.121 11.1532 20.5283C10.9501 20.7314 10.6834 20.8335 10.4168 20.8335C10.1501 20.8335 9.88345 20.7314 9.68033 20.5283L2.38866 13.2366C1.98137 12.8293 1.98137 12.1709 2.38866 11.7636L9.68033 4.47197C10.0876 4.06468 10.7459 4.06468 11.1532 4.47197C11.5605 4.87926 11.5605 5.53766 11.1532 5.94495L5.63967 11.4585H21.8751C22.4511 11.4585 22.9168 11.9241 22.9168 12.5001Z" fill="white" fill-opacity="0.5"/>
</svg>
