<svg width="32" height="32" viewBox="0 0 32 32" fill="none" xmlns="http://www.w3.org/2000/svg">
<path d="M16 28C22.6274 28 28 22.6274 28 16C28 9.37258 22.6274 4 16 4C9.37258 4 4 9.37258 4 16C4 22.6274 9.37258 28 16 28Z" stroke="#BABABA" stroke-width="2" stroke-linecap="round" stroke-linejoin="round"/>
<path d="M26.7751 21.3L19.9876 17.125C19.8708 17.0499 19.7381 17.0028 19.6001 16.9875L16.7376 16.6C16.524 16.5693 16.3063 16.6104 16.1186 16.7167C15.9308 16.823 15.7837 16.9886 15.7001 17.1875L13.9876 21.025C13.9071 21.2035 13.8808 21.4017 13.9119 21.595C13.943 21.7883 14.0302 21.9683 14.1626 22.1125L16.5126 24.65C16.6188 24.7667 16.6967 24.9064 16.74 25.0582C16.7834 25.21 16.7911 25.3697 16.7626 25.525L16.2751 28" stroke="#BABABA" stroke-width="2" stroke-linecap="round" stroke-linejoin="round"/>
<path d="M8.12497 6.95001L6.99997 9.60001C6.90198 9.83527 6.89751 10.0991 6.98747 10.3375L8.42497 14.1625C8.48115 14.3219 8.57731 14.4643 8.70426 14.5759C8.8312 14.6875 8.98467 14.7647 9.14997 14.8L11.825 15.375C11.9734 15.405 12.1129 15.4693 12.2322 15.5626C12.3516 15.6558 12.4475 15.7757 12.5125 15.9125L12.9875 16.9C13.0719 17.067 13.2004 17.2077 13.359 17.3068C13.5176 17.406 13.7004 17.4598 13.8875 17.4625H15.575" stroke="#BABABA" stroke-width="2" stroke-linecap="round" stroke-linejoin="round"/>
<path d="M19.0625 4.38751L20.225 6.48751C20.3323 6.68494 20.3709 6.91247 20.3347 7.13425C20.2985 7.35604 20.1895 7.55947 20.025 7.71251L16.6625 10.75C16.6062 10.8038 16.5431 10.85 16.475 10.8875L14.9375 11.7375C14.7909 11.8153 14.6283 11.8581 14.4625 11.8625H11.7875C11.5904 11.8635 11.3979 11.922 11.2336 12.0308C11.0693 12.1396 10.9403 12.294 10.8625 12.475L9.82495 14.9375" stroke="#BABABA" stroke-width="2" stroke-linecap="round" stroke-linejoin="round"/>
</svg>
