<svg width="32" height="32" viewBox="0 0 32 32" fill="none" xmlns="http://www.w3.org/2000/svg">
<path d="M4 16C4 16.3713 4.15804 16.7274 4.43934 16.9899C4.72064 17.2525 5.10218 17.4 5.5 17.4H16.885L13.435 20.606C13.2944 20.7361 13.1828 20.891 13.1067 21.0616C13.0305 21.2322 12.9913 21.4152 12.9913 21.6C12.9913 21.7848 13.0305 21.9678 13.1067 22.1384C13.1828 22.309 13.2944 22.4639 13.435 22.594C13.5744 22.7252 13.7403 22.8294 13.9231 22.9004C14.1059 22.9715 14.302 23.0081 14.5 23.0081C14.698 23.0081 14.8941 22.9715 15.0769 22.9004C15.2597 22.8294 15.4256 22.7252 15.565 22.594L21.565 16.994C21.7016 16.8609 21.8086 16.7039 21.88 16.532C22.03 16.1912 22.03 15.8088 21.88 15.468C21.8086 15.2961 21.7016 15.1391 21.565 15.006L15.565 9.406C15.4251 9.27547 15.2591 9.17192 15.0764 9.10128C14.8936 9.03063 14.6978 8.99427 14.5 8.99427C14.3022 8.99427 14.1064 9.03063 13.9236 9.10128C13.7409 9.17192 13.5749 9.27547 13.435 9.406C13.2951 9.53653 13.1842 9.6915 13.1085 9.86205C13.0328 10.0326 12.9939 10.2154 12.9939 10.4C12.9939 10.5846 13.0328 10.7674 13.1085 10.9379C13.1842 11.1085 13.2951 11.2635 13.435 11.394L16.885 14.6H5.5C5.10218 14.6 4.72064 14.7475 4.43934 15.0101C4.15804 15.2726 4 15.6287 4 16V16ZM23.5 2H8.5C7.30653 2 6.16193 2.4425 5.31802 3.23015C4.47411 4.0178 4 5.08609 4 6.2V10.4C4 10.7713 4.15804 11.1274 4.43934 11.3899C4.72064 11.6525 5.10218 11.8 5.5 11.8C5.89782 11.8 6.27936 11.6525 6.56066 11.3899C6.84196 11.1274 7 10.7713 7 10.4V6.2C7 5.8287 7.15804 5.4726 7.43934 5.21005C7.72064 4.9475 8.10218 4.8 8.5 4.8H23.5C23.8978 4.8 24.2794 4.9475 24.5607 5.21005C24.842 5.4726 25 5.8287 25 6.2V25.8C25 26.1713 24.842 26.5274 24.5607 26.79C24.2794 27.0525 23.8978 27.2 23.5 27.2H8.5C8.10218 27.2 7.72064 27.0525 7.43934 26.79C7.15804 26.5274 7 26.1713 7 25.8V21.6C7 21.2287 6.84196 20.8726 6.56066 20.6101C6.27936 20.3475 5.89782 20.2 5.5 20.2C5.10218 20.2 4.72064 20.3475 4.43934 20.6101C4.15804 20.8726 4 21.2287 4 21.6V25.8C4 26.9139 4.47411 27.9822 5.31802 28.7698C6.16193 29.5575 7.30653 30 8.5 30H23.5C24.6935 30 25.8381 29.5575 26.682 28.7698C27.5259 27.9822 28 26.9139 28 25.8V6.2C28 5.08609 27.5259 4.0178 26.682 3.23015C25.8381 2.4425 24.6935 2 23.5 2Z" fill="#BABABA"/>
</svg>
