<svg width="28" height="6" viewBox="0 0 28 6" fill="none" xmlns="http://www.w3.org/2000/svg">
<path d="M6.22222 3C6.22222 2.40666 6.03976 1.82664 5.69791 1.33329C5.35605 0.839943 4.87016 0.455425 4.30168 0.228363C3.7332 0.00129986 3.10766 -0.0581102 2.50416 0.0576453C1.90067 0.173401 1.34632 0.459124 0.911224 0.878681C0.476128 1.29824 0.179823 1.83279 0.0597805 2.41473C-0.0602624 2.99667 0.00134799 3.59987 0.236821 4.14805C0.472293 4.69623 0.871052 5.16476 1.38267 5.49441C1.89429 5.82405 2.49579 6 3.11111 6C3.93623 6 4.72755 5.68393 5.311 5.12132C5.89445 4.55871 6.22222 3.79565 6.22222 3ZM21.7778 3C21.7778 3.59334 21.9602 4.17336 22.3021 4.66671C22.6439 5.16006 23.1298 5.54457 23.6983 5.77164C24.2668 5.9987 24.8923 6.05811 25.4958 5.94235C26.0993 5.8266 26.6537 5.54088 27.0888 5.12132C27.5239 4.70176 27.8202 4.16721 27.9402 3.58527C28.0603 3.00333 27.9986 2.40013 27.7632 1.85195C27.5277 1.30377 27.1289 0.835237 26.6173 0.505593C26.1057 0.175949 25.5042 1.90735e-06 24.8889 1.90735e-06C24.0638 1.90735e-06 23.2724 0.316072 22.689 0.878681C22.1056 1.44129 21.7778 2.20435 21.7778 3ZM10.8889 3C10.8889 3.59334 11.0714 4.17336 11.4132 4.66671C11.7551 5.16006 12.2409 5.54457 12.8094 5.77164C13.3779 5.9987 14.0035 6.05811 14.6069 5.94235C15.2104 5.8266 15.7648 5.54088 16.1999 5.12132C16.635 4.70176 16.9313 4.16721 17.0513 3.58527C17.1714 3.00333 17.1098 2.40013 16.8743 1.85195C16.6388 1.30377 16.2401 0.835237 15.7284 0.505593C15.2168 0.175949 14.6153 1.90735e-06 14 1.90735e-06C13.1749 1.90735e-06 12.3836 0.316072 11.8001 0.878681C11.2167 1.44129 10.8889 2.20435 10.8889 3Z" fill="white" fill-opacity="0.7"/>
</svg>
