<svg width="25" height="25" viewBox="0 0 25 25" fill="none" xmlns="http://www.w3.org/2000/svg">
<path d="M12.8125 12.7292C13.3683 12.2481 13.8141 11.653 14.1196 10.9844C14.4252 10.3158 14.5833 9.58929 14.5833 8.85418C14.5833 7.47284 14.0346 6.14808 13.0578 5.17133C12.0811 4.19458 10.7563 3.64584 9.37499 3.64584C7.99365 3.64584 6.66889 4.19458 5.69214 5.17133C4.71539 6.14808 4.16666 7.47284 4.16666 8.85418C4.16665 9.58929 4.32478 10.3158 4.63033 10.9844C4.93587 11.653 5.38168 12.2481 5.93749 12.7292C4.4793 13.3895 3.24214 14.4558 2.37393 15.8006C1.50571 17.1454 1.04319 18.7118 1.04166 20.3125C1.04166 20.5888 1.1514 20.8537 1.34675 21.0491C1.5421 21.2444 1.80706 21.3542 2.08332 21.3542C2.35959 21.3542 2.62454 21.2444 2.81989 21.0491C3.01524 20.8537 3.12499 20.5888 3.12499 20.3125C3.12499 18.6549 3.78347 17.0652 4.95557 15.8931C6.12767 14.721 7.71739 14.0625 9.37499 14.0625C11.0326 14.0625 12.6223 14.721 13.7944 15.8931C14.9665 17.0652 15.625 18.6549 15.625 20.3125C15.625 20.5888 15.7347 20.8537 15.9301 21.0491C16.1254 21.2444 16.3904 21.3542 16.6667 21.3542C16.9429 21.3542 17.2079 21.2444 17.4032 21.0491C17.5986 20.8537 17.7083 20.5888 17.7083 20.3125C17.7068 18.7118 17.2443 17.1454 16.3761 15.8006C15.5078 14.4558 14.2707 13.3895 12.8125 12.7292ZM9.37499 11.9792C8.75692 11.9792 8.15274 11.7959 7.63883 11.4525C7.12493 11.1091 6.72439 10.6211 6.48787 10.0501C6.25134 9.47904 6.18946 8.85071 6.31004 8.24452C6.43061 7.63833 6.72824 7.08151 7.16528 6.64447C7.60232 6.20743 8.15914 5.9098 8.76533 5.78922C9.37152 5.66864 9.99986 5.73053 10.5709 5.96705C11.1419 6.20358 11.63 6.60412 11.9733 7.11802C12.3167 7.63192 12.5 8.23611 12.5 8.85418C12.5 9.68298 12.1707 10.4778 11.5847 11.0639C10.9986 11.6499 10.2038 11.9792 9.37499 11.9792ZM19.5208 12.3125C20.1875 11.5618 20.6229 10.6344 20.7748 9.64203C20.9267 8.64962 20.7885 7.63446 20.3768 6.71876C19.9652 5.80306 19.2977 5.02584 18.4546 4.48066C17.6116 3.93548 16.629 3.64558 15.625 3.64584C15.3487 3.64584 15.0838 3.75559 14.8884 3.95094C14.6931 4.14629 14.5833 4.41124 14.5833 4.68751C14.5833 4.96378 14.6931 5.22873 14.8884 5.42408C15.0838 5.61943 15.3487 5.72918 15.625 5.72918C16.4538 5.72918 17.2486 6.05842 17.8347 6.64447C18.4207 7.23052 18.75 8.02538 18.75 8.85418C18.7485 9.4013 18.6034 9.93845 18.3292 10.4119C18.055 10.8854 17.6613 11.2785 17.1875 11.5521C17.033 11.6412 16.9041 11.7684 16.8129 11.9216C16.7217 12.0748 16.6713 12.2489 16.6667 12.4271C16.6623 12.6039 16.703 12.779 16.7851 12.9357C16.8671 13.0924 16.9876 13.2257 17.1354 13.3229L17.5417 13.5938L17.6771 13.6667C18.9327 14.2622 19.992 15.2042 20.7302 16.3816C21.4684 17.559 21.8547 18.9229 21.8437 20.3125C21.8437 20.5888 21.9535 20.8537 22.1488 21.0491C22.3442 21.2444 22.6091 21.3542 22.8854 21.3542C23.1617 21.3542 23.4266 21.2444 23.622 21.0491C23.8173 20.8537 23.9271 20.5888 23.9271 20.3125C23.9356 18.714 23.5352 17.1399 22.764 15.7397C21.9928 14.3395 20.8764 13.1597 19.5208 12.3125Z" fill="white" fill-opacity="0.3"/>
</svg>
